<?xml version="1.0" encoding="UTF-8"?>
<svg xmlns="http://www.w3.org/2000/svg" xmlns:xlink="http://www.w3.org/1999/xlink" width="64px" height="32px" viewBox="0 0 64 32" version="1.1">
<g id="surface1">
<path style=" stroke:none;fill-rule:nonzero;fill:rgb(0%,0%,0%);fill-opacity:1;" d="M 21.332031 1.464844 C 10.933594 4.132812 6.265625 9.398438 9.066406 15.265625 C 9.867188 16.933594 10.800781 19.132812 11.199219 20.066406 C 12.265625 22.601562 18.535156 23.667969 32 23.667969 C 43.601562 23.667969 50 22.734375 52.132812 20.667969 C 54.265625 18.464844 56.265625 12 55.464844 9.800781 C 53.464844 4.535156 42.667969 0 32 0 C 29.332031 0 24.535156 0.667969 21.332031 1.464844 Z M 40.933594 4 C 52.800781 7.601562 54 16.398438 42.800781 18 C 31.464844 19.601562 17.332031 18.398438 14.933594 15.601562 C 7.867188 7.867188 26.398438 -0.464844 40.933594 4 Z M 40.933594 4 "/>
<path style=" stroke:none;fill-rule:nonzero;fill:rgb(0%,0%,0%);fill-opacity:1;" d="M 8.265625 23.535156 C 9.066406 26.199219 17.601562 27.667969 32 27.667969 C 46.398438 27.667969 54.933594 26.199219 55.734375 23.535156 L 56.132812 22.132812 L 50.398438 23.535156 C 42.132812 25.601562 21.867188 25.601562 13.601562 23.535156 L 7.867188 22.132812 Z M 8.265625 23.535156 "/>
<path style=" stroke:none;fill-rule:nonzero;fill:rgb(0%,0%,0%);fill-opacity:1;" d="M 5.332031 26.535156 C 5.332031 30.667969 26.800781 33.265625 45.199219 31.265625 C 53.066406 30.464844 58.667969 28.464844 58.667969 26.535156 C 58.667969 25.199219 58.535156 25.199219 56.132812 26.265625 C 47.332031 30.265625 16.667969 30.265625 7.867188 26.265625 C 5.464844 25.199219 5.332031 25.199219 5.332031 26.535156 Z M 5.332031 26.535156 "/>
</g>
</svg>
